<svg
                    width="212"
                    height="206"
                    viewBox="0 0 212 206"
                    fill="none"
                    xmlns="http://www.w3.org/2000/svg"
                  >
                    <path
                      d="M8.05957 205.943C8.05957 205.943 29.68 206.071 41.5 205.943C41.91 205.845 45.7096 171.815 45.7096 171.815L46.3896 205.943L81.0396 205.452C81.0396 205.452 77.3796 183.047 76.6096 167.266C78.2696 159.856 77.3595 154.569 76.3495 151.798C73.8595 144.988 70.5995 138.758 70.5995 138.758C70.9995 138.965 61.8395 139.014 49.4095 139.151C27.9195 139.377 23.9496 139.505 23.9496 139.505C23.9496 139.505 20.6796 146.443 18.8196 153.076C14.8396 167.266 8.05957 205.295 8.05957 205.295L8.05957 205.943Z"
                      fill="#2550A1"
                    />
                    <path
                      d="M73.5198 13.4579C74.5898 18.0273 73.1798 23.1077 70.8398 32.2663C68.5998 41.0022 67.7598 41.523 69.0398 56.2238C69.0398 56.2238 64.9698 53.6001 61.6398 46.3283C59.2798 41.1594 59.7398 32.846 59.0198 24.3164C58.3598 16.4256 42.2998 15.9441 42.2998 13.2909C42.2998 5.60636 46.9698 0.987793 54.7998 0.987793C62.6298 0.987793 71.4098 4.48611 73.5098 13.4579H73.5198Z"
                      fill="#912D0B"
                    />
                    <path
                      d="M26.2896 30.6547C26.3696 33.2981 26.8996 37.5236 26.8396 38.919L56.7696 51.222L61.0696 42.8595C65.7096 34.723 68.5496 32.4333 68.9896 24.3361C69.3096 18.4597 68.3496 14.5291 64.8196 11.2961C56.7796 3.94567 50.9396 4.48615 48.9396 5.46882C43.1196 2.25548 34.5796 3.83759 30.0296 9.29142L26.2896 30.6547Z"
                      fill="#912D0B"
                    />
                    <path
                      d="M55.1796 23.2948C55.0696 22.9999 54.9496 22.705 54.8096 22.4199C54.8496 22.4986 54.9996 22.8033 55.1796 23.2948Z"
                      fill="#7A2912"
                    />
                    <path
                      d="M55.75 25.8494C55.95 27.5985 55.89 29.9569 55 32.7772C55.36 31.5783 56.06 28.7679 55.75 25.8494Z"
                      fill="#7A2912"
                    />
                    <path
                      d="M64.7397 32.2662C63.7297 39.0467 59.1097 47.0161 56.7697 51.222C47.6397 52.6665 55.6197 32.3743 54.8097 33.3865C55.6097 32.3645 57.3797 30.7333 58.6597 30.3697C60.7097 28.1587 63.1297 24.8962 64.7497 22.6459C64.7497 22.6459 65.2897 27.1269 64.7497 32.2761L64.7397 32.2662Z"
                      fill="#62251A"
                    />
                    <path
                      d="M38.7299 63.5545L38.9999 57.1672L55.84 41.2872L56.3799 40.6091L57.9899 38.3687L57.8699 39.9213C57.3299 46.8786 55.8399 53.2758 57.9299 60.41L70.7 65.8442L58.09 77.1056L48.65 79.9553L23.46 69.6766L37.6599 63.9476L38.7299 63.5447V63.5545Z"
                      fill="#FDBBA8"
                    />
                    <path
                      d="M25.7598 37.9068C25.0198 46.2497 27.7598 56.5186 37.7998 57.177C56.5498 57.177 58.9198 41.1103 57.8898 29.9865C57.0298 20.7002 48.2898 6.0191 36.2498 11.1978C30.3898 13.7134 26.4097 18.6268 26.0997 24.9061C25.9997 26.9697 26.2598 30.2125 26.2598 30.2125C26.2598 30.2125 25.9598 35.7253 25.7698 37.9068H25.7598Z"
                      fill="#FDBBA8"
                    />
                    <path
                      d="M62.71 35.9022C62.4 39.1451 61.5 41.5723 57.49 41.1595C55.32 40.9335 53.78 38.1722 54.11 34.9294C54.38 32.345 55.93 30.9397 58.65 30.36C62.72 29.4952 63.01 32.6594 62.7 35.9022H62.71Z"
                      fill="#FDBBA8"
                    />
                    <path
                      opacity="0.2"
                      d="M59.1699 34.7136C59.4599 35.2149 60.1399 36.0407 59.3499 37.2694L59.1799 37.525L59.2399 37.2498C59.9499 36.1488 58.9399 34.9495 58.8299 34.9102L56.6899 36.1488L56.6299 36.0505L59.9799 33.7798C60.0999 33.7011 60.2899 34.055 60.1799 34.1238L59.1699 34.7136Z"
                      fill="#A2550C"
                    />
                    <path
                      opacity="0.2"
                      d="M38.7295 63.5644C38.7295 63.5644 54.1295 58.9851 57.3495 42.9971C57.3495 42.9971 53.5795 57.177 38.9995 57.1672L38.7295 63.5644Z"
                      fill="#A2550C"
                    />
                    <path
                      d="M54.8098 22.4003L64.7398 22.6362C63.1298 24.8865 60.6998 28.149 58.6498 30.36C57.3698 30.7334 55.5998 32.3646 54.7998 33.3768L54.9998 32.7675C55.8898 29.9374 56.0198 27.579 55.7498 25.8397C55.5298 24.4639 54.7998 22.3905 54.7998 22.3905L54.8098 22.4003Z"
                      fill="#62251A"
                    />
                    <path
                      d="M54.8296 33.3081C54.8496 33.2393 54.8796 33.1705 54.8996 33.1017C54.8696 33.1902 54.8496 33.259 54.8296 33.3081Z"
                      fill="#912D0B"
                    />
                    <path
                      d="M55.2295 23.432C55.2695 23.55 55.3095 23.6876 55.3495 23.8252C55.3095 23.6974 55.2695 23.5598 55.2295 23.432Z"
                      fill="#912D0B"
                    />
                    <path
                      d="M46.4897 22.4297C45.7997 22.2233 45.5197 20.5724 45.5697 16.8776C45.4397 19.7765 44.7697 22.4297 44.5697 22.4297C41.7697 22.4395 38.9797 22.4493 37.0597 22.4493C34.7797 22.4493 32.9497 22.3609 31.4897 22.2135C30.7997 22.2135 30.9497 18.2042 30.9497 18.2042C30.9497 18.2042 30.4998 22.0661 30.3298 22.0661C25.6498 22.3118 24.8397 21.9482 24.5597 21.4372C24.2497 20.8869 24.5097 17.3493 24.5597 16.3863C24.9797 8.47574 36.0397 4.99707 36.0397 4.99707L50.7698 6.78554L60.6597 10.0087L66.5298 20.0713C66.5298 20.0713 65.8197 21.1227 64.7397 22.6262L46.4897 22.4199V22.4297Z"
                      fill="#912D0B"
                    />
                    <path
                      d="M23.9495 88.3965C29.1595 88.3965 33.3795 84.2496 33.3795 79.1299C33.3795 74.0102 29.1595 69.8633 23.9495 69.8633C18.7395 69.8633 14.5195 74.0102 14.5195 79.1299C14.5195 84.2496 18.7395 88.3965 23.9495 88.3965Z"
                      fill="#BE4A1A"
                    />
                    <path
                      d="M22.5099 108.993C17.1699 105.77 15.8999 99.943 19.6499 91.6984L23.1999 81.5572L22.9798 67.4558L36.9098 64.2622C36.9098 64.2622 33.9199 78.4323 47.3199 78.4716C59.3099 78.5109 61.6499 63.4269 61.6499 63.4269L77.7898 68.242L72.3399 98.7736C72.5599 106.379 70.8798 114.663 70.9798 123.242C71.0598 130.681 73.1498 138.621 70.5998 138.916C70.5998 138.916 45.4399 143.053 23.9499 139.505C20.6599 137.658 23.6898 133.472 23.7298 131.29C23.8598 125.021 22.5099 109.013 22.5099 109.013V108.993Z"
                      fill="#B8FAD6"
                    />
                    <path
                      d="M73.8499 93.0052C79.8899 93.0052 84.7899 88.1901 84.7899 82.2449C84.7899 76.2998 79.8899 71.4945 73.8499 71.4945C67.8099 71.4945 62.8999 76.3096 62.8999 82.2449C62.8999 88.1803 67.7999 93.0052 73.8499 93.0052Z"
                      fill="#B8FAD6"
                    />
                    <path
                      d="M21.6396 115.823L23.7396 131.28C23.7396 131.28 26.2997 129.885 34.5297 126.996C38.8197 125.492 36.8196 118.869 36.5696 114.3C36.2096 107.814 47.8896 100.415 47.8896 100.415L33.1996 104.689L21.6396 115.823Z"
                      fill="#97F4C9"
                    />
                    <path
                      d="M34.52 124.215C37.59 123.871 33.38 107.401 33.38 107.401L28 111.018C28 111.018 29.74 124.746 34.52 124.215Z"
                      fill="#54E9B0"
                    />
                    <path
                      opacity="0.2"
                      d="M57.7696 41.2086L57.7096 42.1523L56.5396 40.894C56.5396 40.894 56.8596 41.1103 57.7596 41.2184L57.7696 41.2086Z"
                      fill="#A2550C"
                    />
                    <path
                      opacity="0.3"
                      d="M61.0698 40.334V40.354L61.0298 40.374C61.0398 40.374 61.0598 40.354 61.0698 40.334Z"
                      fill="#FC76A9"
                    />
                    <path
                      opacity="0.3"
                      d="M60.4097 40.7763L61.0097 40.3831C60.7097 40.6288 60.4497 40.7566 60.4097 40.7763Z"
                      fill="#FC76A9"
                    />
                    <path
                      opacity="0.3"
                      d="M62.2296 38.4078C62.2296 38.4078 62.2096 38.4865 62.2096 38.516C62.0196 39.322 61.5695 39.8823 61.1595 40.2559C61.1295 40.2854 61.0896 40.3149 61.0596 40.3345L61.7996 39.4793L62.2296 38.4078Z"
                      fill="#FC76A9"
                    />
                    <path
                      d="M88.1296 84.9473L100.9 120.599L84.8596 126.731L65.2896 79.1299L88.1296 84.9473Z"
                      fill="#FDBBA8"
                    />
                    <path
                      d="M101.8 120.009L74.7799 108.522L61.6499 63.417C61.6499 63.417 73.8499 66.306 77.7899 68.2223C89.5199 73.9414 101.8 119.999 101.8 119.999V120.009Z"
                      fill="#B8FAD6"
                    />
                    <path
                      d="M73.0596 95.452L72.5496 85.8611C72.4896 84.7802 71.5296 83.9646 70.4296 84.0628C69.4596 84.1513 68.7096 84.9276 68.6696 85.8808L68.3296 94.3416L73.0596 95.452Z"
                      fill="#FDBBA8"
                    />
                    <path
                      d="M72.1197 127.143C71.9897 126.396 71.2697 125.6 70.9697 125.443L70.9097 126.573C67.0297 119.066 65.5197 112.246 65.3697 107.804C65.0397 98.0759 76.6097 67.7408 76.6097 67.7408L77.2097 67.9668L76.8997 66.7188C76.8097 66.4829 76.7397 66.2766 76.3897 66.1881L69.6197 64.832C69.0097 64.5667 68.3097 64.9008 68.0697 65.5396C68.0697 65.5396 55.7797 96.9458 58.3297 113.71C59.5597 121.837 66.4897 135.525 70.5897 137.058C71.1697 137.275 72.3997 137.058 72.6797 136.42C73.7597 133.943 73.3197 127.124 73.3197 127.124L72.1397 127.143H72.1197Z"
                      fill="#101834"
                    />
                    <path
                      d="M36.9297 98.1545L49.0497 98.5574C49.5697 98.577 50.0098 98.1741 50.0298 97.6631L50.8797 73.2536C50.8997 72.7426 50.4897 72.3102 49.9697 72.2906L37.8497 71.8877C37.3297 71.868 36.8897 72.2709 36.8697 72.7819L36.0197 97.1915C35.9997 97.7025 36.4097 98.1348 36.9297 98.1545Z"
                      fill="#0E1638"
                    />
                    <path
                      d="M35.0297 106.242C35.6597 105.859 36.0897 105.544 36.5897 105.279C37.3897 104.856 40.6697 103.687 41.0597 103.608C44.4097 102.93 44.7097 102.694 47.8797 100.405L51.0697 98.0464L53.3097 96.5134L53.3697 96.4741C54.0497 95.9533 54.2397 95.0099 53.7897 94.2729C53.4997 93.8012 53.0097 93.5162 52.4897 93.4671C52.4897 93.4671 52.4797 93.4671 52.4697 93.4671C52.7797 93.4966 52.1797 93.6145 52.4697 93.4671C52.1597 93.4376 52.7597 93.3197 52.4697 93.4671C53.0797 93.1527 53.3897 92.5336 53.3297 91.9243C53.3297 91.8261 53.3097 90.4994 52.1297 90.2636L52.3697 90.1064H52.3897C52.9897 89.7035 53.2597 89.0058 53.1297 88.3572H53.1397C53.1397 88.3572 52.8197 86.8439 51.3597 86.3722C50.8997 86.2248 50.4297 86.5491 50.4097 87.0208L50.3897 87.3451L45.9197 89.5757C45.9197 89.5757 45.9197 89.5659 45.8997 89.5954C45.9097 89.5954 45.9097 89.5757 45.8997 89.5954L48.8597 86.8537L51.6097 84.397L51.7197 84.2693C51.9997 83.9843 52.1597 83.6404 52.1997 83.2768C52.2197 83.1589 52.2197 83.0311 52.1997 82.9132C52.1797 82.7363 52.1397 82.5594 52.0597 82.412C51.9897 82.2253 51.8797 82.0583 51.7297 81.9109C51.0697 81.2427 50.0997 81.282 49.2997 81.8716C49.2997 81.8716 38.1597 90.7058 37.2297 90.3324C36.6797 90.1064 36.7497 87.3451 36.7797 86.726C36.8897 84.2595 37.3997 82.8641 36.1897 82.5988C34.9897 82.3334 34.4097 83.5126 34.2697 84.0728C33.7297 86.2052 33.0397 87.8069 32.6597 89.5364C31.8297 93.2902 32.0797 93.9388 30.4297 95.6683L34.9797 106.242H35.0297Z"
                      fill="#FDBBA8"
                    />
                    <path
                      d="M22.9798 89.9294C28.1698 89.9294 32.3798 85.7923 32.3798 80.6923C32.3798 75.5922 28.1698 71.465 22.9798 71.465C17.7898 71.465 13.5898 75.602 13.5898 80.6923C13.5898 85.7825 17.7998 89.9294 22.9798 89.9294Z"
                      fill="#FDBBA8"
                    />
                    <path
                      d="M18.6199 114.889L31.7199 84.0924L16.4399 77.479L14.9699 76.6536C9.45991 88.2393 6.27994 98.3706 1.68994 110.34L18.6299 114.889H18.6199Z"
                      fill="#FDBBA8"
                    />
                    <path
                      d="M15.1599 120.117C19.9499 116.914 41.0599 103.608 41.0599 103.608L30.4799 95.6682L1.10986 113.052L15.1599 120.117Z"
                      fill="#FDBBA8"
                    />
                    <path
                      d="M52.1399 90.2637L47.1099 92.9374L47.5499 92.7998L52.7999 90.5881C52.7999 90.5881 52.6699 90.4701 52.5899 90.4308C52.4799 90.362 52.1399 90.2637 52.1399 90.2637Z"
                      fill="#ECA88C"
                    />
                    <path
                      d="M52.4796 93.4768L47.3696 96.2587L47.9597 95.9638L53.0297 93.6144C53.0297 93.6144 52.8397 93.5456 52.7697 93.526C52.6997 93.5063 52.4796 93.4768 52.4796 93.4768Z"
                      fill="#ECA88C"
                    />
                    <path
                      d="M10.0397 121.847C14.9297 121.847 18.8997 117.955 18.8997 113.14C18.8997 108.325 14.9297 104.434 10.0397 104.434C5.14967 104.434 1.17969 108.335 1.17969 113.14C1.17969 117.945 5.13967 121.847 10.0397 121.847Z"
                      fill="#FDBBA8"
                    />
                    <path
                      d="M24.4695 85.8514C29.6795 85.8514 33.8996 81.7046 33.8996 76.5848C33.8996 71.4651 29.6795 67.3182 24.4695 67.3182C19.2595 67.3182 15.0396 71.4651 15.0396 76.5848C15.0396 81.7046 19.2595 85.8514 24.4695 85.8514Z"
                      fill="#B8FAD6"
                    />
                    <path
                      d="M15.8698 72.7817L33.1998 80.9772C32.1898 85.8513 28.4598 93.408 25.5298 98.685L0.569824 114.565C5.39982 93.9878 15.8698 72.7916 15.8698 72.7916V72.7817Z"
                      fill="#B8FAD6"
                    />
                    <path
                      d="M9.52979 126.062C14.6598 126.062 18.8198 121.974 18.8198 116.933C18.8198 111.892 14.6598 107.804 9.52979 107.804C4.39979 107.804 0.239746 111.892 0.239746 116.933C0.239746 121.974 4.39979 126.062 9.52979 126.062Z"
                      fill="#B8FAD6"
                    />
                    <path
                      d="M67.9898 89.1138L61.5598 86.5982C60.3398 86.1265 58.9598 86.7062 58.4798 87.8953C57.9998 89.0941 58.5898 90.4502 59.8098 90.9219L66.2398 93.4376C67.4598 93.9191 68.8399 93.3295 69.3199 92.1404C69.7999 90.9416 69.2098 89.5855 67.9898 89.1138Z"
                      fill="#FDBBA8"
                    />
                    <path
                      d="M66.8498 92.9068L59.8498 91.1872C58.5798 90.8727 57.2898 91.6392 56.9698 92.8872C56.6498 94.1352 57.4298 95.4028 58.6998 95.7074L65.6998 97.4271C66.9698 97.7416 68.2598 96.9751 68.5798 95.7369C68.8998 94.4889 68.1198 93.2213 66.8498 92.9068Z"
                      fill="#FDBBA8"
                    />
                    <path
                      d="M64.1799 101.114L58.2799 99.669C57.1499 99.3938 56.4599 98.283 56.7299 97.1722C56.9999 96.0319 58.1599 95.334 59.3099 95.6191L65.2099 97.0641C66.3399 97.3393 67.0299 98.4501 66.7599 99.5609C66.4899 100.701 65.3299 101.399 64.1799 101.114Z"
                      fill="#FDBBA8"
                    />
                    <path
                      d="M62.6296 104.622L57.9596 103.472C56.8396 103.197 56.1596 102.096 56.4196 100.995C56.6896 99.8646 57.8396 99.1765 58.9896 99.4517L63.6596 100.602C64.7796 100.877 65.4596 101.978 65.1996 103.079C64.9296 104.209 63.7796 104.907 62.6396 104.622H62.6296Z"
                      fill="#FDBBA8"
                    />
                    <path
                      d="M67.9999 89.0941C67.9999 89.0941 68.6899 89.4086 69.6099 89.9982C70.8899 90.8236 72.59 92.1994 73.45 94.0566C74.53 96.3855 76.09 98.1052 76.09 98.1052L70.7 106.478C70.7 106.478 67.12 105.947 64.33 105.249C61.8 104.62 57.4199 103.264 57.4199 103.264L67.9999 89.104V89.0941Z"
                      fill="#FDBBA8"
                    />
                    <path
                      d="M67.5798 105.937L86.1798 129.001L98.4698 116.835L75.5098 97.6926L67.5698 105.937H67.5798Z"
                      fill="#FDBBA8"
                    />
                    <path
                      d="M92.5796 131.772C97.3796 131.772 101.27 127.949 101.27 123.232C101.27 118.515 97.3796 114.693 92.5796 114.693C87.7796 114.693 83.8896 118.515 83.8896 123.232C83.8896 127.949 87.7796 131.772 92.5796 131.772Z"
                      fill="#FDBBA8"
                    />
                    <path
                      d="M61.7299 85.0848L59.1499 86.9722L61.2999 86.5692L61.7299 85.0947V85.0848Z"
                      fill="#FDBBA8"
                    />
                    <path
                      d="M26.3398 97.2701L4.2998 105.947L7.53979 125.856C7.53979 125.856 24.1098 129.914 34.5098 124.225C26.4498 119.596 26.9398 97.7516 26.9398 97.7516L27.5598 97.388L27.1798 97.2504C26.9098 97.1522 26.6098 97.162 26.3398 97.2701Z"
                      fill="#B8FAD6"
                    />
                    <path
                      d="M69.0896 107.814C69.0896 107.814 66.4196 111.637 68.3296 118.859C68.3296 118.859 70.6896 117.307 72.6096 112.187L69.0796 107.814H69.0896Z"
                      fill="#B8FAD6"
                    />
                    <path
                      d="M69.0898 107.814C69.0898 107.814 66.1897 119.714 67.5797 125.826C67.5797 125.826 71.8497 123.232 73.2997 113.032L69.0898 107.814Z"
                      fill="#54E9B0"
                    />
                    <path
                      d="M75.8896 97.2798L75.5796 97.4862L76.0896 98.0954C76.0896 98.0954 73.0896 121.856 67.5796 125.817C71.1496 131.801 91.8596 132.037 91.8596 132.037L97.5596 114.673L77.3996 97.3486C76.9796 96.985 76.3596 96.9457 75.8896 97.2601V97.2798Z"
                      fill="#B8FAD6"
                    />
                    <path
                      d="M92.5797 132.047C97.8797 132.047 102.17 127.831 102.17 122.623C102.17 117.415 97.8797 113.199 92.5797 113.199C87.2797 113.199 82.9897 117.415 82.9897 122.623C82.9897 127.831 87.2797 132.047 92.5797 132.047Z"
                      fill="#B8FAD6"
                    />
                    <path
                      d="M16.9196 100.827C16.9196 100.827 16.9196 98.0757 18.0196 95.2653C19.2696 92.0814 22.9896 81.557 22.9896 81.557L13.2896 102.576L16.9196 100.827Z"
                      fill="#97F4C9"
                    />
                    <path
                      d="M53.4795 42.9983C53.4795 40.6686 55.3995 38.7812 57.7695 38.7812C60.1395 38.7812 62.0595 40.6686 62.0595 42.9983H53.4795Z"
                      fill="#FF80AB"
                    />
                    <path
                      d="M45.6697 4.22108C46.6497 3.11066 48.8397 2.11816 48.8397 2.11816C48.8397 2.11816 59.9297 3.26788 64.0697 10.6478C64.0697 10.6478 57.1197 4.00489 48.9297 5.4789C48.9297 5.4789 47.5597 4.45692 45.6597 4.2309L45.6697 4.22108Z"
                      fill="#7A2912"
                    />
                    <path
                      d="M62.12 86.7955L61.38 86.5006L61.76 85.0555L59.5 86.707C59.5 86.707 60.11 86.4612 62.12 86.7955Z"
                      fill="#ECA88C"
                    />
                    <path
                      d="M57.6299 91.7182L58.9799 90.3518L60.2799 91.0891L60.2399 91.2758C60.2399 91.2758 59.3899 91.1579 58.7599 91.3152C58.3999 91.4036 57.6299 91.7084 57.6299 91.7084V91.7182Z"
                      fill="#ECA88C"
                    />
                    <path
                      d="M70.7296 84.5444C70.7296 84.5444 70.4296 90.0081 71.8896 91.8653L69.1196 89.7035L70.7296 84.5444Z"
                      fill="#ECA88C"
                    />
                    <path
                      d="M58.3597 95.5896L65.3797 96.7201L57.4297 96.0319C57.4297 96.0319 57.7197 95.6879 58.3597 95.5896Z"
                      fill="#ECA88C"
                    />
                    <path
                      d="M57.8199 99.491C57.8199 99.491 57.3099 99.6483 57.1099 99.894L64.0699 100.671L57.8199 99.491Z"
                      fill="#ECA88C"
                    />
                    <path
                      d="M65.2498 74.4719C71.4598 74.4719 76.4897 69.5291 76.4897 63.4169C76.4897 57.3047 71.4598 52.3618 65.2498 52.3618C59.0398 52.3618 54.0098 57.3145 54.0098 63.4169C54.0098 69.5193 59.0498 74.4719 65.2498 74.4719Z"
                      fill="white"
                    />
                    <path
                      d="M58.1298 70.3744L54.3198 74.0902L60.1398 72.3699L58.1298 70.3842V70.3744Z"
                      fill="white"
                    />
                    <path
                      d="M58.1298 70.3749L54.3198 74.0907L56.1098 68.3893L58.1198 70.3749H58.1298Z"
                      fill="white"
                    />
                    <path
                      d="M67.9999 60.4886C67.1399 60.0955 66.1899 59.9088 65.2399 59.9481C64.2899 59.9088 63.3399 60.0955 62.4799 60.4886L60.4699 58.5233C60.4699 58.5233 60.3699 58.4643 60.3099 58.4447C60.2499 58.4447 60.2 58.4447 60.14 58.4643C60.09 58.484 60.0399 58.5233 60.0099 58.5724C59.9799 58.6215 59.96 58.6707 59.96 58.7296V64.5765C60.1 67.7899 63.62 68.4974 64.84 68.6448C65.12 68.6743 65.3999 68.6743 65.6799 68.6448C66.8999 68.4974 70.4199 67.7899 70.5599 64.5765V58.7395C70.5599 58.6805 70.5399 58.6215 70.5099 58.5724C70.4799 58.5233 70.4299 58.484 70.3799 58.4643C70.3199 58.4447 70.27 58.4348 70.21 58.4447C70.15 58.4447 70.0999 58.484 70.0599 58.5233L68.02 60.4984L67.9999 60.4886Z"
                      fill="#0D6B45"
                    />
                    <path
                      d="M144.94 45.0508C141.26 37.5235 146.29 31.8142 149.82 24.5915C149.82 24.5915 150.12 23.6678 153.34 16.0226C157.35 6.51035 167.46 3.11031 169.46 4.10281C177.47 1.47908 185.01 3.71957 186.41 11.5809C187.17 15.8359 192.88 17.6244 191.87 23.4221C191.87 23.4221 192.13 26.154 194.27 30.1829C195.52 32.5315 197.2 37.9362 197.3 39.3316C197.57 43.3606 198.11 49.1288 193.22 53.6C201.05 63.4169 192.18 71.5043 192.18 71.5043L145.99 70.7771C145.99 70.7771 139.93 66.473 139.66 58.7689C139.4 51.1826 144.94 45.0606 144.94 45.0606V45.0508Z"
                      fill="#FFB9D0"
                    />
                    <path
                      d="M177.13 62.3358V55.7126L160.3 39.8326L159.76 39.1546L158.15 36.9141L158.27 38.4667C158.81 45.4142 158.78 55.2802 158.16 62.2277V62.3358L144.95 68.2318H192.68L178.21 62.7387L177.14 62.3358H177.13Z"
                      fill="#A85E4D"
                    />
                    <path
                      d="M190.43 40.6973C190.58 49.0697 186.4 55.7224 178.34 55.7224C160.02 55.801 157.23 39.6655 158.26 28.5318C159.12 19.2456 167.86 4.57429 179.89 9.74314C185.75 12.2588 189.73 17.1721 190.04 23.4514C190.14 25.515 189.88 28.7579 189.88 28.7579L190.43 40.6875V40.6973Z"
                      fill="#A85E4D"
                    />
                    <path
                      d="M153.43 34.4575C153.74 37.7004 154.64 40.1275 158.65 39.7148C160.82 39.4888 162.36 36.7275 162.02 33.4847C161.76 30.9003 160.21 29.5049 157.48 28.9153C153.42 28.0505 153.12 31.2147 153.43 34.4575Z"
                      fill="#A85E4D"
                    />
                    <path
                      d="M156.96 33.259C156.67 33.7604 155.99 34.5861 156.78 35.8148L156.95 36.0704L156.89 35.7952C156.18 34.6942 157.19 33.495 157.3 33.4556L159.44 34.6942L159.5 34.5959L156.15 32.3252C156.03 32.2465 155.84 32.6004 155.95 32.6594L156.96 33.2492V33.259Z"
                      fill="#9F523B"
                    />
                    <path
                      d="M177.13 60.5376C177.13 60.5376 162.58 58.1595 159.36 42.1813C159.36 42.1813 162.54 55.7225 177.13 55.7028V60.5376Z"
                      fill="#9F523B"
                    />
                    <path
                      d="M157.75 44.6772C156.54 44.6772 155.58 43.3309 155.58 41.6211C155.58 41.6211 155.55 41.4737 155.91 41.4639C156.24 41.4639 156.24 41.6211 156.24 41.6211C156.24 42.928 156.93 44.0286 157.74 44.0286C158.55 44.0286 159.24 42.928 159.24 41.6211C159.24 40.3141 158.55 39.2135 157.74 39.2135C157.74 39.2135 157.47 39.2135 157.48 38.8893C157.48 38.5551 157.74 38.565 157.74 38.565C158.96 38.565 159.91 39.9112 159.91 41.6211C159.91 43.3309 158.96 44.6772 157.74 44.6772H157.75Z"
                      fill="#FFE87A"
                    />
                    <path
                      d="M187.94 10.4605L188.58 11.6397C189.12 12.6322 189.58 13.6641 189.96 14.7253L193.22 26.5862C193.22 26.5862 188.83 25.8983 179.62 20.0318C174.1 16.5138 173.8 15.1577 169.79 12.8583C169.79 12.8583 160.07 27.0972 162.06 32.8262C160.3 30.0059 159.05 29.4163 158.14 29.0822L151.05 20.926L155.54 8.58364L165.43 5.36047L182.5 5.53735L187.92 10.4605H187.94Z"
                      fill="#FFB9D0"
                    />
                    <path
                      d="M197.06 69.8042L211.09 104.915L195.33 108.531L181.77 72.6343L197.06 69.814V69.8042Z"
                      fill="#A85E4D"
                    />
                    <path
                      d="M203.49 116.619C208.12 116.619 211.87 112.934 211.87 108.384C211.87 103.834 208.12 100.149 203.49 100.149C198.86 100.149 195.11 103.834 195.11 108.384C195.11 112.934 198.86 116.619 203.49 116.619Z"
                      fill="#A85E4D"
                    />
                    <path
                      d="M194.09 103.294L195.62 86.2245L200.96 84.8979C200.96 84.8979 201.02 91.8946 198.29 98.3114C197.48 100.218 197.52 101.387 197.52 102.576L194.09 103.284V103.294Z"
                      fill="#9F523B"
                    />
                    <path
                      d="M190.22 135.476C190.22 135.476 200.47 173.555 202.5 205.943H175.5C173.3 199.762 168.15 166.273 168.15 166.273C168.15 166.273 171.29 196.814 171.21 205.943H132.66L134.72 138.562L190.21 135.476H190.22Z"
                      fill="#101834"
                    />
                    <path
                      d="M193.31 140.606C193.31 140.606 192.4 132.056 192.01 129.276C190.77 120.579 191.96 108.944 192.63 102.655C196.25 99.7462 200.19 92.6906 196.86 85.3697L193.86 77.4002L192.79 66.3747L177.14 60.5376C173.64 63.6428 168.97 64.5371 164.59 62.8272L158.32 60.4983L141.26 67.8978L146.47 91.4033C146.11 104.011 148.54 116.687 147.2 129.236L144.28 141.588C144.1 142.257 144.27 142.974 144.73 143.495C145.13 143.947 145.71 144.202 146.31 144.202L149.27 144.517C164.99 146.197 172.51 146.59 187.99 143.416C189.12 143.18 191.98 142.207 191.98 142.207L192.24 143.269L193.04 142.257C193.24 142.001 193.43 141.107 193.3 140.596L193.31 140.606Z"
                      fill="#FD80A9"
                    />
                    <path
                      d="M191.46 120.274L191.54 124.215C157.27 125.826 166.15 145.932 166.15 145.932L165.65 121.837L191.45 120.274H191.46Z"
                      fill="#FF6F8D"
                    />
                    <path
                      opacity="0.3"
                      d="M169.8 12.8484C169.8 12.8484 173.12 16.2288 175.92 18.1843C178.26 19.8155 190 26.8809 190 26.8809L190.06 25.5642C190.06 25.5642 180.73 21.2994 176.07 17.5357C176.07 17.5357 171.32 13.5559 169.8 12.8484Z"
                      fill="#9A3709"
                    />
                    <path
                      opacity="0.3"
                      d="M155.06 38.8893V38.9093L155.1 38.9293C155.09 38.9293 155.07 38.9093 155.06 38.8993V38.8893Z"
                      fill="#FC76A9"
                    />
                    <path
                      opacity="0.3"
                      d="M155.72 39.3317L155.12 38.9385C155.42 39.1842 155.68 39.312 155.72 39.3317Z"
                      fill="#FC76A9"
                    />
                    <path
                      opacity="0.3"
                      d="M153.9 36.9633C153.9 36.9633 153.92 37.0321 153.92 37.0714C154.11 37.8775 154.56 38.4476 154.97 38.8113C155 38.8408 155.04 38.8703 155.07 38.8899L154.33 38.0347L153.9 36.9633Z"
                      fill="#FC76A9"
                    />
                    <path
                      d="M204.28 82.9719L201.3 75.8377C200.39 73.7741 198.9 70.4625 195.94 68.2416C195.34 67.7896 192.77 66.3844 192.77 66.3844L180.59 74.6585C181.48 78.9823 182.72 83.5812 184.08 88.239H187.63C192.91 88.239 199.18 86.3327 203.54 83.4043L204.27 82.9719H204.28Z"
                      fill="#FD80A9"
                    />
                    <path
                      d="M198.23 80.4369L195.78 79.5719H170.03L172.37 80.7908L198.23 80.4369Z"
                      fill="#196CFF"
                    />
                    <path
                      d="M195.13 79.3459L196.99 80.0046L171.08 80.1225L169.53 79.3853L195.13 79.3459Z"
                      fill="#00DB91"
                    />
                    <path
                      d="M162.43 100.572C162.43 100.572 164.65 99.3137 165.12 99.2941C165.4 99.2941 165.92 99.3629 166.19 99.6381C166.46 99.9134 166.32 101.063 166.32 101.063L162.42 100.572H162.43Z"
                      fill="#9F523B"
                    />
                    <path
                      d="M169.52 79.3851L164.88 123.478L162.06 122.623L167.59 78.6481L169.52 79.3851Z"
                      fill="#FFB9D0"
                    />
                    <path
                      d="M193.26 78.5499L195.13 79.3462L169.53 79.3855L167.6 78.6482L193.26 78.5499Z"
                      fill="#FFB9D0"
                    />
                    <path
                      d="M190.89 123.635L167.19 124.224L164.35 123.635L171.07 80.1221L172.37 80.8001L198.23 80.4463L190.89 123.635Z"
                      fill="#196CFF"
                    />
                    <path
                      d="M171.07 80.1123L165.79 123.93L163.85 123.527L169.52 79.3851L171.07 80.1221V80.1123Z"
                      fill="#00DB91"
                    />
                    <path
                      d="M183.31 114.644C181.85 114.535 179.28 114.339 179.24 114.349C175.42 115.302 174.18 115.135 169.47 114.742L165.14 114.162L162.33 113.73H162.26C161.38 113.533 160.76 112.737 160.85 111.843C160.9 111.273 161.23 110.782 161.69 110.507C161.69 110.507 161.7 110.507 161.71 110.507C161.44 110.674 162.05 110.516 161.71 110.507C161.98 110.339 161.37 110.507 161.71 110.507C160.99 110.487 160.42 110.045 160.19 109.445C160.14 109.357 159.55 108.099 160.54 107.352L160.69 107.382C160.69 107.382 159.93 106.802 160.24 105.279C160.54 103.805 162.21 103.775 162.21 103.775L165.44 104.267L165.98 104.345C165.98 104.345 163.04 104.168 162.13 103.726C161.59 103.461 161.35 102.075 161.64 101.456C162.11 100.454 163.07 100.257 164.2 100.424L167.88 100.886L168.45 100.434C169.18 99.8543 170.1 99.648 171.05 99.6283C174.19 99.5988 177.23 99.4907 178.4 100.12C182.18 102.144 181.36 101.79 183.37 102.694C186.45 104.07 185.96 103.736 185.96 103.736L183.35 114.644H183.31Z"
                      fill="#9F523B"
                    />
                    <path
                      d="M204.28 82.972C204.28 82.972 204.05 83.7486 203.02 84.7218L202.69 83.9157L204.28 82.972Z"
                      fill="#FD80A9"
                    />
                    <path
                      opacity="0.3"
                      d="M148.39 98.2722L147.06 108.069L147.55 115.056L149.87 98.2722H148.39Z"
                      fill="#FD403D"
                    />
                    <path
                      d="M149.36 24.739C149.29 24.6309 149.25 24.5031 149.25 24.3656C149.13 8.70176 158.33 1.75427 170.78 1.75427C183.23 1.75427 189.39 9.2324 191.24 18.2828C191.24 18.2828 167.64 26.7436 158.8 25.4072C153.26 24.5719 150.84 24.4638 149.87 24.4835C149.74 24.8078 149.65 24.9552 149.65 24.9552C149.55 24.9552 149.44 24.8471 149.37 24.7291L149.36 24.739Z"
                      fill="#196CFF"
                    />
                    <path
                      d="M158.79 25.4169C158.79 25.4169 169.4 27.0972 177.75 27.5787C185.8 28.0406 200.15 27.6279 199.01 23.422C198.12 20.1301 191.23 18.2925 191.23 18.2925L158.79 25.4169Z"
                      fill="#196CFF"
                    />
                    <path
                      d="M167.96 1.04651L169.46 0.977695C170.53 0.928545 171.44 1.74444 171.49 2.79626L166.11 3.04201C166.06 1.99019 166.89 1.09566 167.96 1.04651Z"
                      fill="#196CFF"
                    />
                    <path
                      d="M191.23 18.2828C191.23 18.2828 189.5 18.0077 182.38 19.1279C174.32 20.3857 167.9 21.8696 167.9 21.8696C167.9 21.8696 194.3 6.67746 176.82 2.42249C176.82 2.42249 188.9 4.36818 191.23 18.2828Z"
                      fill="#175DDA"
                    />
                    <path
                      d="M122.38 106.35C122.38 106.35 147.32 109.858 165.66 111.725L144.94 113.966L122.38 106.35Z"
                      fill="#E6E6E6"
                    />
                    <path
                      d="M165.66 111.725C165.66 111.725 147.11 111.872 141.08 110.949C129.94 109.239 122.38 106.35 122.38 106.35V153.833C122.38 155.759 123.36 157.547 124.99 158.608C128.22 160.721 134.32 163.866 142.63 164.377C150.4 164.858 157.46 164.416 161.79 163.993C164.31 163.748 166.21 161.655 166.18 159.168L165.66 111.715V111.725Z"
                      fill="white"
                    />
                    <path
                      d="M145.34 85.9791C150.53 85.9791 154.74 81.842 154.74 76.7419C154.74 71.6419 150.53 67.5146 145.34 67.5146C140.15 67.5146 135.95 71.6517 135.95 76.7419C135.95 81.8322 140.16 85.9791 145.34 85.9791Z"
                      fill="#A85E4D"
                    />
                    <path
                      d="M131.89 114.103L150.79 115.046L154.7 77.528L136.07 75.2482C134.17 87.905 132.8 101.338 131.9 114.103H131.89Z"
                      fill="#A85E4D"
                    />
                    <path
                      d="M129.32 110.418L126.18 109.897C126.22 109.651 130.09 85.8216 135.55 71.1012L139.88 69.2242C134.52 83.6695 129.35 110.172 129.31 110.418H129.32Z"
                      fill="white"
                    />
                    <path
                      d="M153.65 96.7489L156.32 78.0487L143.17 66.3745C133.18 72.0937 131.23 84.2984 129.67 91.6292C136.09 94.9899 143.25 96.7489 150.52 96.7489H153.66H153.65Z"
                      fill="#FD80A9"
                    />
                    <path
                      d="M129.67 91.6294C129.67 91.6294 129.86 93.2415 130.75 94.3327C131.68 95.4729 133.51 95.817 133.51 95.817L134.05 93.5757L129.67 91.6294Z"
                      fill="#FD80A9"
                    />
                    <path
                      d="M153.74 113.071C153.74 112.963 153.65 101.81 152.1 90.7056C150.2 77.1152 146.83 69.1261 142.85 68.7625C138.84 68.3989 136.99 71.799 136.99 71.799L134.93 74.9238C134.93 70.6296 137.47 65.0087 143.15 65.5197C149.13 66.0503 153.13 74.1574 155.38 90.283C156.96 101.603 157.05 112.934 157.05 113.042L153.74 113.061V113.071Z"
                      fill="white"
                    />
                    <path
                      d="M159.29 112.167C159.29 112.059 159.26 101.092 157.08 90.2044C155.15 80.5939 151.13 69.0573 142.93 68.7134L143.27 65.5492C147.93 65.7457 151.64 68.5267 154.72 73.725C157.03 77.6361 158.88 83.0014 160.21 89.6443C162.45 100.827 162.48 111.715 162.48 112.177H159.3L159.29 112.167Z"
                      fill="white"
                    />
                    <path
                      d="M125.35 113.71C125.35 113.71 132.12 116.029 142.63 117.1C149.39 117.788 158.19 118.289 161.09 118.437C161.64 118.466 162.06 118.908 162.06 119.449V158.028C162.06 159.041 161.24 159.876 160.21 159.905C155.91 160.043 145.28 160.279 141.25 159.483C130.92 157.449 124.55 154.196 124.55 154.196L125.34 113.7L125.35 113.71Z"
                      fill="#FFB9D0"
                    />
                    <path
                      d="M185.23 104.04L201.98 100.277L202.44 116.55L185.76 114.958L185.23 104.04Z"
                      fill="#A85E4D"
                    />
                    <path
                      d="M166.84 114.358L179.95 112.717L186.83 103.716L188.94 103.205C188.94 103.205 185.76 113.621 192.89 115.636L185.77 114.958L179.25 114.339C179.25 114.339 175.76 115.115 173.75 115.036C171.74 114.958 168.91 114.673 166.85 114.358H166.84Z"
                      fill="#9F523B"
                    />
                    <path
                      d="M169.8 108.06L180.65 112.167C181.14 112.354 181.68 112.118 181.87 111.637L190.46 89.723C190.65 89.2415 190.41 88.7109 189.92 88.5242L179.08 84.4166C178.59 84.2299 178.05 84.4756 177.86 84.9472L169.28 106.861C169.09 107.342 169.33 107.873 169.82 108.06H169.8Z"
                      fill="#0E1638"
                    />
                    <path
                      d="M179.22 98.9503L173.51 100.739C173.51 100.739 173.56 100.139 173.74 99.2844C173.93 98.3902 174.98 95.6682 174.98 95.6682C174.98 95.6682 175.55 93.4572 174.03 93.0543C173 92.7791 172.51 93.3589 172.29 93.6439C170.92 95.4422 170.41 97.5844 169.25 99.196C167.16 102.105 166.77 103.215 164.75 103.549C162.07 103.991 158.75 104.414 158.75 104.414L164.25 115.577C164.95 115.43 166.7 114.329 167.23 114.192C168.09 113.975 168.66 114.015 168.7 114.015C172.31 114.477 174.8 114.133 179.07 113.258L182.73 112.108L185.26 111.411L185.33 111.391C186.11 111.135 186.59 110.33 186.41 109.514C186.3 108.993 185.95 108.58 185.49 108.374C185.49 108.374 185.49 108.374 185.48 108.374C185.75 108.502 185.17 108.423 185.48 108.374C185.21 108.256 185.79 108.335 185.48 108.374C186.14 108.276 186.61 107.804 186.76 107.234C186.79 107.146 187.2 105.927 186.21 105.348L186.48 105.279H186.51C187.18 105.112 187.65 104.561 187.74 103.923C187.74 103.923 187.95 102.449 186.77 101.564C186.4 101.289 185.87 101.446 185.7 101.869L185.58 102.154L180.79 102.802C180.79 102.802 180.79 102.793 180.77 102.812L184.35 101.24L187.64 99.8544L187.78 99.7758C188.12 99.5989 188.38 99.3335 188.53 99.0191C188.58 98.911 188.62 98.8029 188.65 98.685C188.69 98.5179 188.7 98.341 188.68 98.1838C188.68 97.9971 188.63 97.8104 188.54 97.6335C188.15 96.8179 187.3 96.4838 186.34 96.8376L179.18 98.9503H179.22Z"
                      fill="#A85E4D"
                    />
                    <path
                      d="M167.18 114.221L164.76 103.559L132.39 108.246C132.39 108.246 131.92 112.609 131.92 116.314C131.92 123.134 137.46 125.443 144.73 123.605C150.64 122.112 167.18 114.211 167.18 114.211V114.221Z"
                      fill="#A85E4D"
                    />
                    <path
                      d="M186.22 105.347L180.78 106.222H181.22L186.72 105.849C186.72 105.849 186.63 105.701 186.58 105.632C186.5 105.534 186.23 105.347 186.23 105.347H186.22Z"
                      fill="#9F523B"
                    />
                    <path
                      d="M185.5 108.374L179.95 109.328L180.58 109.239L185.95 108.669C185.95 108.669 185.8 108.541 185.75 108.512C185.69 108.472 185.5 108.374 185.5 108.374Z"
                      fill="#9F523B"
                    />
                    <path
                      d="M188.55 82.4021C194.76 82.4021 199.8 77.4494 199.8 71.347C199.8 65.2446 194.76 60.3018 188.55 60.3018C182.34 60.3018 177.31 65.2446 177.31 71.347C177.31 77.4494 182.35 82.4021 188.55 82.4021Z"
                      fill="white"
                    />
                    <path
                      d="M193.9 79.6997L196.75 84.1625L191.48 81.1939L193.9 79.6997Z"
                      fill="white"
                    />
                    <path
                      d="M193.9 79.7L196.76 84.162L196.32 78.2061L193.9 79.7Z"
                      fill="white"
                    />
                    <path
                      d="M185.48 70.3249V75.7689C185.48 75.7689 185.48 75.8574 185.45 75.8967C185.43 75.936 185.41 75.9753 185.37 76.0048C185.34 76.0342 185.3 76.0637 185.26 76.0735C185.22 76.0932 185.17 76.103 185.13 76.103H183.75C183.75 76.103 183.66 76.103 183.62 76.0735C183.58 76.0539 183.54 76.0342 183.51 76.0048C183.48 75.9753 183.45 75.936 183.43 75.8967C183.41 75.8574 183.4 75.8082 183.4 75.7689V70.3249C183.4 70.2365 183.44 70.148 183.5 70.0891C183.57 70.0301 183.65 69.9908 183.75 69.9908H185.13C185.13 69.9908 185.22 69.9908 185.26 70.0105C185.3 70.0301 185.34 70.0498 185.37 70.0793C185.4 70.1087 185.43 70.148 185.45 70.1873C185.47 70.2267 185.48 70.2758 185.48 70.3151V70.3249ZM193.79 70.8752C193.76 70.6295 193.63 70.4035 193.44 70.2365C193.25 70.0792 193 69.9908 192.75 69.9908H189.96C190.19 69.3422 190.31 68.6642 190.31 67.9862C190.31 67.6127 190.15 67.259 189.88 67.0035C189.61 66.748 189.24 66.6006 188.87 66.6006H188.6C188.51 66.6006 188.42 66.6399 188.36 66.6989C188.3 66.7578 188.26 66.8463 188.26 66.9347C188.26 67.7208 187.95 69.1359 187.36 69.7157C187.02 70.0301 186.62 70.2856 186.19 70.4625V75.5626C187.1 75.9163 188.07 76.103 189.05 76.1129H191.32C191.49 76.1227 191.67 76.0932 191.83 76.0244C191.99 75.9458 192.13 75.8377 192.23 75.7001C192.33 75.5626 192.4 75.3955 192.42 75.2284C192.44 75.0516 192.42 74.8845 192.35 74.7175C192.57 74.6585 192.76 74.5308 192.9 74.3539C193.04 74.177 193.11 73.9608 193.11 73.7348C193.11 73.607 193.08 73.4793 193.03 73.3614C193.2 73.3221 193.36 73.2336 193.49 73.1059C193.62 72.988 193.71 72.8307 193.77 72.6637C193.82 72.4966 193.83 72.3197 193.79 72.1527C193.75 71.9856 193.67 71.8284 193.55 71.6908C193.65 71.5729 193.72 71.4452 193.76 71.3076C193.8 71.1602 193.81 71.0128 193.78 70.8654V70.8752H193.79Z"
                      fill="#196CFF"
                    />
                    <path
                      d="M152.39 205.943H115.39C115.15 203.467 113.4 195.115 113.4 195.115C113.4 195.115 112.27 201.521 111.05 205.943H74.6899C75.3999 197.129 77.7499 166.941 77.7499 166.941L147.61 168.376C147.61 168.376 151.59 188.668 152.39 205.943Z"
                      fill="#6E54BD"
                    />
                    <path
                      d="M137.29 24.9845C136.36 50.2686 126.86 46.9865 114.03 46.8194C101.19 46.6524 92.8596 48.7848 92.8596 23.5498C92.4096 14.9907 98.4996 2.80554 113.03 2.80554C134.11 2.80554 137.32 15.7866 137.29 24.9845Z"
                      fill="#0E1638"
                    />
                    <path
                      d="M114.92 57.2752C126.04 57.2752 135.06 48.4115 135.06 37.4841C135.06 26.5568 126.04 17.6931 114.92 17.6931C103.8 17.6931 94.7798 26.5568 94.7798 37.4841C94.7798 48.4115 103.8 57.2752 114.92 57.2752Z"
                      fill="#0E1638"
                    />
                    <path
                      d="M124.16 69.1163L144.06 75.5626V97.9282L113.57 114.938L84.5599 97.9282L83.6499 75.5626L105 69.1163C105.22 68.4382 105.45 67.6914 105.15 62.0214L105 56.1057L124.15 55.4178C124.15 55.4178 123.92 62.552 123.91 63.7607C123.91 65.0972 124.15 69.1065 124.15 69.1065L124.16 69.1163Z"
                      fill="#A85E4D"
                    />
                    <path
                      d="M132.91 25.4955V36.9141C129.1 40.55 123.88 42.8003 118.16 42.8003C106.45 42.8003 96.98 33.4944 96.98 22.0168C96.98 20.5821 97.12 19.1966 97.42 17.8405C98.36 18.8723 100.04 19.8255 102.11 20.4151C106.2 21.5845 117.05 17.1329 123.29 14.9907H123.32C128.73 15.5607 132.9 20.0417 132.9 25.4955H132.91Z"
                      fill="#0E1638"
                    />
                    <path
                      d="M123.3 14.9907H123.33C128.74 15.5607 132.91 20.0318 132.91 25.4955V42.4466C132.91 52.2045 124.86 60.1249 114.92 60.1249C104.98 60.1249 96.9297 52.2045 96.9297 42.4466V24.3163C96.9297 19.1671 101.18 15.0006 106.41 15.0006H123.3V14.9907Z"
                      fill="#A85E4D"
                    />
                    <path
                      d="M90.71 36.5997C90.71 40.4026 94.2001 42.5743 96.9301 42.1616C99.6601 41.7489 101.11 39.6951 100.52 35.9413C99.93 32.1875 98.56 30.5956 95.92 29.7996C93.36 29.0331 90.71 31.4505 90.71 36.5997Z"
                      fill="#A85E4D"
                    />
                    <path
                      d="M138.75 37.1795C138.28 40.953 134.54 42.6923 131.89 41.9553C129.23 41.2183 128.05 39.0073 129.1 35.3517C130.15 31.6962 131.71 30.2811 134.43 29.8095C137.06 29.3476 139.39 32.0696 138.75 37.1795Z"
                      fill="#A85E4D"
                    />
                    <path
                      d="M93.65 34.1435C93.3 34.7333 92.4999 35.7262 93.4399 37.1908L93.6399 37.4956L93.5699 37.1712C92.7299 35.8638 93.93 34.4384 94.06 34.3893L96.5999 35.8736L96.67 35.7557L92.68 33.0524C92.53 32.9639 92.3099 33.3768 92.4399 33.4554L93.6399 34.1534L93.65 34.1435Z"
                      fill="#9F523B"
                    />
                    <path
                      d="M96.1099 29.8684C96.4699 29.9765 96.5298 30.0256 96.8398 30.1631L96.8699 42.2107L96.6699 41.1986C96.5299 40.5205 96.4499 39.8326 96.4299 39.1349L96.2299 33.18L96.1199 29.8585L96.1099 29.8684Z"
                      fill="#9F523B"
                    />
                    <path
                      d="M136.42 34.5855C136.77 35.1753 137.57 36.1682 136.63 37.6329L136.43 37.9376L136.5 37.6132C137.35 36.3058 136.14 34.8804 136.01 34.8313L133.47 36.3156L133.4 36.1977L137.39 33.4944C137.54 33.4059 137.76 33.8188 137.63 33.8974L136.43 34.5954L136.42 34.5855Z"
                      fill="#9F523B"
                    />
                    <path
                      d="M134.02 29.8881C133.54 29.9864 133.22 30.0846 132.91 30.2222V42.1126L133.17 41.2085C133.3 40.5305 133.45 39.8426 133.47 39.1449L133.91 33.0818L134.02 29.8783V29.8881Z"
                      fill="#9F523B"
                    />
                    <path
                      d="M105.04 57.2751L105.07 58.3071C105.07 58.3071 116.37 64.0174 123.93 62.9657C123.86 62.9756 124.02 58.8772 124.09 57.6486C124.09 57.6486 115.87 62.2679 105.04 57.2751Z"
                      fill="#9F523B"
                    />
                    <path
                      d="M132.89 37.5626C132.68 30.6053 131.28 23.1468 130.65 20.0711C130.48 19.226 129.72 18.6265 128.84 18.6364L100.38 18.8722C99.4696 18.8722 98.7297 19.5797 98.6797 20.4641C98.4797 23.9919 98.0096 30.3891 96.9896 36.7667L96.4996 23.0093L96.2196 18.9115L95.6797 15.8652L113.86 5.71423L134.25 18.3121L132.89 37.5725V37.5626Z"
                      fill="#0E1638"
                    />
                    <path
                      d="M143.96 174.901C143.96 174.901 142.88 120.451 143.02 109.956C143.14 101.142 143.11 78.9529 143.11 78.9529L123.43 71.1898L123.14 71.406C121.06 73.7152 118.2 74.5308 113.99 74.8453C109.5 74.6095 107.45 73.4401 105.46 71.2291L105.06 70.8655L86.2098 77.076L81.2397 170.921C81.2397 170.921 89.4798 180.08 110.67 180.089C140.53 180.089 143.95 174.891 143.95 174.891L143.96 174.901Z"
                      fill="#D1D4FF"
                    />
                    <path
                      d="M124.61 73.8234L113.36 76.0639L104.62 73.8234L104.45 65.3331C104.45 64.8614 104.26 63.8394 104.68 63.6134C104.75 63.5741 105.18 63.299 105.22 63.299L105.25 63.8984C107.08 64.5863 108.57 65.166 114.34 65.1857C120.3 65.2053 122 65.0088 123.92 64.2423V63.5446C124.05 63.5446 124.33 63.6331 124.57 63.7903C124.93 64.0261 125.15 64.8221 125.1 65.5001L124.61 73.8332V73.8234Z"
                      fill="#D1D4FF"
                    />
                    <path
                      d="M105.2 182.88C105.2 182.88 78.8896 182.723 74.6896 175.874C75.0496 172.317 75.2796 163.649 75.3996 157.351V157.262C75.4796 153.449 75.5096 149.283 75.5196 144.949C75.5896 119.164 74.6896 87.3155 74.6896 87.3155C74.5396 82.1172 77.7696 77.3807 82.7296 75.5431C87.8696 73.6465 98.3395 70.1384 102.19 69.421C102.19 69.421 102.38 67.8095 102.85 67.1412C103.55 66.1389 104.46 65.8834 104.46 65.8834C104.46 65.8834 104.63 66.4239 105.55 67.4557C105.76 67.7014 105.88 68.006 105.88 68.3303L105.19 182.89L105.2 182.88Z"
                      fill="#969CF5"
                    />
                    <path
                      d="M126.21 67.6816C125.89 66.866 125.05 66.4336 125.05 66.4336C125.05 66.4336 124.95 67.0723 124.12 68.0845C123.87 68.3891 123.8 68.7724 123.82 69.1556C125.12 97.7808 127.46 182.88 127.46 182.88C127.46 182.88 150.37 183.951 154.56 179.254C149.26 154.058 151.37 87.4038 151.37 87.4038C151.13 81.498 149.02 77.4002 144.06 75.5626C138.92 73.6661 130.41 70.2955 126.57 69.5781C126.57 69.5781 126.51 68.4481 126.21 67.6816Z"
                      fill="#969CF5"
                    />
                    <path
                      d="M157.82 133.609C159.68 137.835 153.86 150.167 145.27 145.519L117.8 128.45L124.96 114.201C124.96 114.201 155.54 128.43 157.82 133.599V133.609Z"
                      fill="#969CF5"
                    />
                    <path
                      d="M68.8598 133.373C66.9998 137.599 72.8198 149.931 81.4098 145.283L108.88 128.214L101.72 113.975C101.72 113.975 71.1398 128.204 68.8598 133.373Z"
                      fill="#969CF5"
                    />
                    <path
                      d="M92.34 72.2314L77.99 77.1644C75.42 78.2945 72.36 81.7142 72.05 85.4975L68.52 134.71L86.84 132.626L92.34 72.2216V72.2314Z"
                      fill="#969CF5"
                    />
                    <path
                      d="M104.89 119.203L106.52 112.855C106.83 111.646 108.08 110.909 109.31 111.214C110.54 111.519 111.29 112.747 110.98 113.956L109.35 120.304L104.89 119.203Z"
                      fill="#A85E4D"
                    />
                    <path
                      d="M104.89 119.203L106.52 112.855C106.83 111.646 108.08 110.909 109.31 111.214C110.54 111.519 111.29 112.747 110.98 113.956L109.35 120.304L104.89 119.203Z"
                      fill="#9F523B"
                    />
                    <path
                      d="M112.69 126.583L107.59 128.342C106.74 128.637 106.29 129.552 106.59 130.387C106.89 131.223 107.82 131.665 108.67 131.37L113.77 129.611C114.62 129.316 115.07 128.401 114.77 127.566C114.47 126.73 113.54 126.288 112.69 126.583Z"
                      fill="#A85E4D"
                    />
                    <path
                      d="M112.69 126.583L107.59 128.342C106.74 128.637 106.29 129.552 106.59 130.387C106.89 131.223 107.82 131.665 108.67 131.37L113.77 129.611C114.62 129.316 115.07 128.401 114.77 127.566C114.47 126.73 113.54 126.288 112.69 126.583Z"
                      fill="#9F523B"
                    />
                    <path
                      d="M126.28 125.817C126.28 125.817 126.31 127.999 124.93 128.992C124.12 129.572 121.51 130.368 120.51 130.368C118.17 130.368 116.5 129.483 116.5 129.483L126.28 125.817Z"
                      fill="#A85E4D"
                    />
                    <path
                      d="M126.28 125.817C126.28 125.817 126.31 127.999 124.93 128.992C124.12 129.572 121.51 130.368 120.51 130.368C118.17 130.368 116.5 129.483 116.5 129.483C116.5 129.483 123.52 129.739 125.27 128.402C125.82 127.979 126.28 125.826 126.28 125.826V125.817Z"
                      fill="#9F523B"
                    />
                    <path
                      d="M109.33 129.482H121.98C122.74 129.482 123.36 128.873 123.36 128.126L125.8 104.689C125.8 103.942 125.18 103.333 124.42 103.333L107.98 103.176C107.22 103.176 106.6 103.785 106.6 104.532L107.95 128.116C107.95 128.863 108.57 129.472 109.33 129.472V129.482Z"
                      fill="#0E1638"
                    />
                    <path
                      d="M108.69 115.666L104.99 116.737C103.77 117.091 103.08 118.349 103.44 119.548C103.8 120.748 105.08 121.436 106.3 121.082L110 120.001C111.22 119.647 111.91 118.388 111.55 117.189C111.19 115.99 109.91 115.302 108.69 115.666Z"
                      fill="#A85E4D"
                    />
                    <path
                      d="M109.6 119.822L105.42 121.041C104.2 121.395 103.51 122.653 103.87 123.853C104.23 125.052 105.51 125.73 106.73 125.376L110.91 124.157C112.13 123.803 112.82 122.545 112.46 121.346C112.1 120.147 110.82 119.468 109.6 119.822Z"
                      fill="#A85E4D"
                    />
                    <path
                      d="M109.6 124.117L106.37 125.06C105.15 125.414 104.46 126.672 104.82 127.872C105.18 129.071 106.46 129.749 107.68 129.395L110.91 128.452C112.13 128.098 112.82 126.839 112.46 125.64C112.1 124.441 110.82 123.763 109.6 124.117Z"
                      fill="#A85E4D"
                    />
                    <path
                      d="M127 112.571L123.35 111.332C122.15 110.919 120.84 111.548 120.43 112.728C120.01 113.907 120.65 115.195 121.85 115.608L125.5 116.847C126.7 117.259 128.01 116.63 128.42 115.451C128.84 114.271 128.2 112.983 127 112.571Z"
                      fill="#A85E4D"
                    />
                    <path
                      d="M124.6 115.891L120.24 116.068C118.97 116.118 117.99 117.169 118.04 118.418C118.09 119.666 119.16 120.639 120.43 120.58L124.79 120.403C126.06 120.354 127.04 119.302 126.99 118.054C126.94 116.806 125.86 115.832 124.6 115.891Z"
                      fill="#A85E4D"
                    />
                    <path
                      d="M123.54 120.029L121.27 120.687C120.05 121.041 119.36 122.299 119.72 123.499C120.08 124.698 121.36 125.386 122.58 125.022L124.85 124.364C126.07 124.01 126.76 122.752 126.4 121.552C126.04 120.353 124.76 119.675 123.54 120.029Z"
                      fill="#A85E4D"
                    />
                    <path
                      d="M123.98 123.566H121.05C119.78 123.566 118.75 124.579 118.75 125.827C118.75 127.075 119.78 128.088 121.05 128.088H123.98C125.25 128.088 126.28 127.075 126.28 125.827C126.28 124.579 125.25 123.566 123.98 123.566Z"
                      fill="#A85E4D"
                    />
                    <path
                      d="M125.25 109.976L126.14 112.276L125.05 111.903L125.25 109.976Z"
                      fill="#A85E4D"
                    />
                    <path
                      d="M125.25 109.976L126.14 112.276L125.05 111.903L125.25 109.976Z"
                      fill="#9F523B"
                    />
                    <path
                      d="M103.59 119.95L104.57 121.503L105.41 121.061L103.59 119.96V119.95Z"
                      fill="#A85E4D"
                    />
                    <path
                      d="M104.1 124.323L105.08 126.053L105.79 125.345L104.11 124.323H104.1Z"
                      fill="#A85E4D"
                    />
                    <path
                      d="M126.38 122.908L125.51 124.962L124.84 124.382L126.38 122.908Z"
                      fill="#A85E4D"
                    />
                    <path
                      d="M126.93 118.663L126.14 121.012L125.41 120.294L126.94 118.663H126.93Z"
                      fill="#A85E4D"
                    />
                    <path
                      d="M128.3 115.725L126.96 117.759L126.63 116.924L128.3 115.725Z"
                      fill="#A85E4D"
                    />
                    <path
                      d="M126.38 122.908C126.28 123.144 122.84 122.967 121.98 123.104C120.05 123.429 119.87 123.891 119.87 123.891C119.87 123.891 124.72 123.271 125.76 124.392L126.38 122.908Z"
                      fill="#9F523B"
                    />
                    <path
                      d="M126.14 121.012L126.94 118.663C126.61 119.213 121.81 120.078 119.1 120.226C120.22 120.884 121.44 120.432 121.85 120.54C121.85 120.54 125.15 119.547 126.15 121.012H126.14Z"
                      fill="#9F523B"
                    />
                    <path
                      d="M126.96 117.769L128.12 116C128.12 116 124.31 115.547 122.89 115.97C122.89 115.97 126.63 115.842 126.96 117.769Z"
                      fill="#9F523B"
                    />
                    <path
                      d="M105.07 126.053L103.86 123.861C103.86 123.861 105.16 124.706 108.96 124.323C108.96 124.323 105.89 124.893 105.07 126.053Z"
                      fill="#9F523B"
                    />
                    <path
                      d="M104.58 121.503L103.44 119.567C103.44 119.567 104.62 120.913 108.33 120.206L104.58 121.493V121.503Z"
                      fill="#9F523B"
                    />
                    <path
                      d="M137.79 73.2141L148.69 77.3806C151.26 78.5107 153.99 81.5177 154.52 84.2299L158.15 134.926L139.83 132.843L137.78 73.1945L137.79 73.2141Z"
                      fill="#969CF5"
                    />
                    <path
                      d="M136.38 119.832L138.63 97.5254L139.45 121.385L136.38 119.832Z"
                      fill="#8782E1"
                    />
                    <path
                      d="M151.45 146.197L152.44 163.128C150.95 152.073 135.78 139.613 135.78 139.613C135.78 139.613 144.11 147.013 151.45 146.197Z"
                      fill="#8782E1"
                    />
                    <path
                      d="M75.5199 145.961L75.3999 157.341L105.51 130.209C105.51 130.209 97.0399 135.447 91.2799 139.151C85.3399 142.974 79.8299 147.583 75.5199 145.961Z"
                      fill="#8782E1"
                    />
                    <path
                      d="M90.3997 119.753L86.6797 121.63L88.5897 96.2675L90.3897 119.763L90.3997 119.753Z"
                      fill="#8782E1"
                    />
                    <path
                      d="M124.85 98.7931C131.06 98.7931 136.1 93.8404 136.1 87.738C136.1 81.6356 131.07 76.6927 124.85 76.6927C118.63 76.6927 113.61 81.6454 113.61 87.738C113.61 93.8306 118.64 98.7931 124.85 98.7931Z"
                      fill="white"
                    />
                    <path
                      d="M120.25 96.5136L117.79 101.202L117.71 95.2261L120.25 96.5136Z"
                      fill="white"
                    />
                    <path
                      d="M120.25 96.5132L117.79 101.202L122.78 97.8009L120.24 96.5132H120.25Z"
                      fill="white"
                    />
                    <path
                      d="M130.65 86.1165C130.62 87.1484 130.21 88.131 129.5 88.8877C128.62 89.8507 127.65 90.7351 126.63 91.5409L125.31 92.6513C125.19 92.7594 125.03 92.8184 124.86 92.8184C124.69 92.8184 124.53 92.7594 124.41 92.6513L123.09 91.5409C122.07 90.7351 121.11 89.8507 120.22 88.8877C119.51 88.131 119.1 87.1484 119.07 86.1165C119.06 85.2321 119.38 84.3674 119.99 83.709C120.28 83.3946 120.63 83.1391 121.03 82.9622C121.43 82.7853 121.85 82.6969 122.29 82.6969C122.95 82.6969 123.59 82.913 124.11 83.3159C124.4 83.5321 124.65 83.7876 124.87 84.0726C125.08 83.7876 125.33 83.5321 125.61 83.3159C126.13 82.9032 126.78 82.687 127.45 82.6969C127.89 82.6969 128.32 82.7853 128.72 82.9622C129.12 83.1391 129.48 83.3946 129.77 83.709C130.37 84.3772 130.68 85.2321 130.67 86.1165H130.65Z"
                      fill="#FF403D"
                    />
                  </svg>